<svg width="595" height="437" viewBox="0 0 595 437" fill="none" xmlns="http://www.w3.org/2000/svg">
<path d="M593.433 401.188C592.886 400.825 592.27 400.742 591.631 400.713C589.98 400.638 588.328 400.553 586.677 400.463C580.15 400.11 573.626 399.646 567.082 399.865C565.193 399.928 563.301 399.937 561.414 400.032C560.19 400.093 559.106 399.849 558.169 399.04C558.169 398.755 558.141 398.517 558.174 398.288C558.755 394.266 558.541 390.284 557.639 386.325C556.976 383.411 556.303 380.496 555.764 377.557C554.669 371.589 553.064 365.755 551.274 359.967C550.225 356.575 548.536 353.446 547.15 350.192C544.214 343.298 540.615 336.755 536.79 330.33C533.518 324.833 529.867 319.626 525.311 315.088C522.843 312.631 520.122 310.504 517.282 308.512C516.63 308.055 515.927 307.702 515.114 307.661C514.173 307.613 513.318 308.189 513.103 308.984C512.886 309.785 513.161 310.478 513.947 310.991C514.604 311.42 515.31 311.774 515.952 312.222C521.44 316.056 525.965 320.841 529.726 326.353C531.767 329.344 533.645 332.438 535.462 335.571C538.821 341.364 541.673 347.399 544.487 353.471C547.187 359.294 549.069 365.343 550.524 371.555C551.312 374.924 552.053 378.304 552.814 381.678C554.081 387.294 555.325 392.91 554.339 398.728C554.274 399.113 554.301 399.515 554.299 399.908C554.295 401.175 554.147 402.415 553.773 403.635C553.405 404.837 553.133 406.069 552.783 407.277C552.144 409.479 551.287 411.563 549.915 413.446C548.706 415.104 547.348 416.634 546.117 418.267C542.904 422.532 538.635 425.41 533.924 427.731C533.643 427.87 533.357 428.007 533.059 428.101C531.411 428.622 529.753 429.117 528.108 429.647C526.907 430.034 525.691 430.321 524.441 430.515C521.25 431.01 518.021 431.19 514.829 431.626C506.666 432.74 498.486 432.728 490.305 432.166C481.273 431.546 472.255 430.735 463.232 429.997C461.82 429.881 460.413 429.695 459.002 429.563C454.848 429.174 450.694 428.789 446.538 428.413C440.187 427.838 433.841 427.19 427.482 426.725C419.787 426.162 412.069 425.913 404.385 425.181C400.545 424.815 396.691 424.584 392.881 423.943C389.856 423.434 386.826 422.948 383.813 422.378C377.923 421.267 372.195 419.612 366.679 417.237C363.473 415.857 360.54 414.045 357.856 411.828C355.013 409.479 353.263 406.437 352.571 402.854C352.184 400.854 351.964 398.792 352.129 396.74C352.478 392.411 352.536 388.094 351.931 383.779C351.73 382.35 351.869 380.971 352.688 379.693C353.064 379.108 353.271 378.405 353.504 377.738C354.108 376.014 355.275 374.796 356.837 373.913C358.292 373.09 359.847 372.571 361.499 372.327C367.461 371.447 373.446 371.566 379.412 372.121C385.132 372.653 390.826 373.453 396.539 374.073C398.728 374.311 400.935 374.415 403.137 374.512C407.194 374.693 410.719 373.359 413.677 370.593C414.195 370.108 414.698 369.938 415.362 370.006C416.772 370.152 418.181 370.346 419.595 370.395C425.651 370.606 431.409 372.062 436.961 374.429C437.466 374.644 437.978 374.863 438.507 375.003C439.476 375.258 440.385 374.889 440.747 374.156C441.115 373.408 440.876 372.44 440.047 371.885C439.268 371.363 438.438 370.877 437.566 370.539C431.737 368.279 425.769 366.636 419.449 366.643C418.74 366.644 418.03 366.624 417.323 366.579C416.339 366.517 416.232 366.402 416.195 365.494C416.186 365.258 416.216 365.02 416.199 364.785C415.897 360.646 414.27 357.215 410.887 354.683C408.852 353.161 406.652 351.972 404.265 351.12C402.637 350.538 400.984 350.02 399.371 349.4C393.857 347.283 388.607 344.588 383.354 341.915C379.697 340.054 375.943 338.474 372.015 337.3C364.455 335.039 356.7 333.74 348.907 332.647C342.905 331.805 336.891 331.049 330.847 330.561C329.522 330.455 328.2 330.311 326.923 330.189C326.82 329.962 326.709 329.823 326.699 329.677C326.611 328.42 326.521 327.163 326.469 325.904C325.935 312.991 325.985 300.076 326.354 287.16C326.511 281.65 326.728 276.142 326.912 270.633C326.961 269.137 326.929 267.636 327.041 266.146C327.3 262.696 327.415 259.239 328.174 255.83C328.954 252.329 330.814 249.648 333.697 247.619C334.855 246.804 336.022 245.992 337.241 245.274C341.871 242.546 346.079 239.251 350.18 235.8C355.302 231.491 359.472 226.411 362.659 220.526C364.017 218.018 365.003 215.404 365.358 212.532C365.735 209.477 365.9 206.413 365.993 203.347C366.038 201.862 365.845 200.356 365.618 198.881C365.278 196.668 364.166 194.922 362.179 193.781C360.533 192.836 358.82 192.061 356.974 191.603C355.586 191.259 354.312 190.667 353.09 189.931C351.983 189.265 351.435 188.392 351.503 187.026C351.663 183.801 351.811 180.579 352.324 177.383C352.784 174.509 353.217 171.63 353.653 168.752C353.783 167.895 353.868 167.032 354.008 166.178C354.091 165.67 354.364 165.317 354.952 165.345C355.424 165.367 355.896 165.387 356.369 165.391C362.355 165.442 368.349 165.601 374.322 165.209C380.535 164.801 386.756 164.722 392.972 164.489C396.434 164.359 399.899 164.459 403.361 164.728C404.943 164.85 406.453 165.305 408.013 165.506C410.308 165.803 411.791 164.88 412.551 162.696C412.813 161.943 412.937 161.172 412.963 160.38C413.075 157.072 413.137 153.769 412.588 150.483C412.328 148.931 412.179 147.361 411.961 145.803C411.295 141.049 410.804 136.269 409.826 131.563C408.015 122.861 406.213 114.157 404.359 105.463C403.326 100.618 402.217 95.7929 400.55 91.1071C399.787 88.9635 399.386 86.7007 399.182 84.4211C398.584 77.7561 398.002 71.0914 396.927 64.4782C395.674 56.7692 393.84 49.2126 391.066 41.9074C389.214 37.0305 386.867 32.3998 383.503 28.3643C377.026 20.5924 369.51 14.1246 360.246 9.82394C354.805 7.29845 349.178 5.37341 343.369 3.89416C335.244 1.82572 327.044 0.496584 318.634 0.640198C313.744 0.723594 308.893 1.09509 304.086 2.06443C298.117 3.26772 292.452 5.33788 286.867 7.71196C279.089 11.0183 272.156 15.5757 266.236 21.5914C261.913 25.9833 258.129 30.8066 255.572 36.4864C254.992 37.777 254.444 39.0886 253.769 40.3293C252.036 43.514 250.573 46.8201 249.195 50.1668C246.675 56.2885 244.451 62.5003 243.502 69.096C243.313 70.4091 243.094 71.7178 242.887 73.0409C242.034 73.2099 241.269 73.3708 240.502 73.5116C237.324 74.0943 234.509 75.4804 232.128 77.6169C226.115 83.0101 223.75 89.8206 224.623 97.7861C224.987 101.113 226.176 104.176 228.056 107.122C227.382 107.584 226.801 108.089 226.311 108.701C221.831 114.296 217.53 120.023 213.554 125.988C212.024 128.283 210.684 130.685 209.54 133.199C208.818 134.786 208.291 136.429 208.014 138.145C207.161 143.424 209.653 147.77 214.07 149.776C216.166 150.728 218.349 151.347 220.625 151.63C223.905 152.037 227.192 152.383 230.473 152.792C232.44 153.036 234.399 153.046 236.362 152.788C237.528 152.635 238.696 152.497 239.94 152.627C240.469 153.957 240.98 155.273 241.513 156.58C243.487 161.424 246.491 165.487 250.664 168.674C252.923 170.399 255.301 171.928 257.851 173.182C260.781 174.622 263.912 175.431 267.142 175.679C272.504 176.089 277.849 176.035 283.008 174.168C283.733 173.906 284.471 173.706 285.211 173.784C285.516 174.337 285.31 174.782 285.178 175.213C284.855 176.265 284.49 177.305 284.16 178.355C282.995 182.059 282.21 185.817 282.534 189.736C282.551 189.941 282.432 190.158 282.381 190.351C281.955 190.496 281.593 190.657 281.213 190.743C280.029 191.009 279.527 191.823 279.427 192.942C279.315 194.197 279.234 195.455 279.16 196.713C279.07 198.221 279.257 199.698 279.686 201.147C280.556 204.083 282.046 205.261 285.091 205.543C287.454 205.761 289.813 205.592 292.174 205.597C299.346 205.61 306.5 205.201 313.651 204.704C315.048 204.607 316.445 204.519 317.936 204.552C318.036 205.897 317.8 207.031 317.62 208.184C317.31 210.155 317.493 210.078 315.516 210.21C314.583 210.273 313.649 210.485 312.742 210.726C311.518 211.052 310.395 211.624 309.359 212.358C304.633 215.707 303.643 221.851 307.076 226.523C310.13 230.681 315.902 232.622 320.998 231.232C323.18 230.637 325.099 229.601 326.594 227.897C328.808 225.373 329.687 222.478 328.885 219.14C328.311 216.75 327.019 214.831 325.181 213.247C324.22 212.419 323.147 211.751 321.978 211.278C321.359 211.027 321.124 210.688 321.192 210.043C321.373 208.321 321.523 206.595 321.694 204.872C321.739 204.415 322.02 204.188 322.472 204.161C322.708 204.146 322.943 204.127 323.179 204.117C330.968 203.765 338.757 203.419 346.545 203.057C348.355 202.973 350.162 202.848 351.969 202.715C352.514 202.675 353.068 202.595 353.59 202.441C354.816 202.079 355.604 201.295 355.872 199.993C356.049 199.135 356.102 198.278 356.083 197.411C356.025 194.777 355.955 194.748 358.369 195.916C358.652 196.053 358.926 196.208 359.209 196.343C361.01 197.201 361.871 198.588 362.026 200.615C362.317 204.411 361.964 208.159 361.589 211.921C361.349 214.327 360.511 216.503 359.383 218.595C356.436 224.064 352.584 228.796 347.834 232.807C343.799 236.214 339.641 239.444 335.09 242.149C333.739 242.952 332.429 243.835 331.161 244.765C327.733 247.278 325.487 250.568 324.519 254.758C323.644 258.544 323.41 262.39 323.235 266.24C323.005 271.275 322.936 276.315 322.735 281.352C322.138 296.31 322.049 311.273 322.674 326.235C322.707 327.022 322.719 327.811 322.785 328.595C322.9 329.977 322.563 329.997 321.558 329.962C318.32 329.852 315.112 330.198 311.907 330.604C311.361 330.673 310.811 330.768 310.263 330.767C309.669 330.765 309.067 331.206 308.487 330.786C308.425 330.608 308.336 330.463 308.328 330.314C307.984 324.024 307.427 317.744 307.56 311.433C307.629 308.127 307.578 304.817 307.601 301.509C307.627 297.729 307.639 293.947 307.722 290.168C307.918 281.189 307.974 272.211 307.58 263.237C307.501 261.435 307.301 259.615 306.924 257.852C305.57 251.514 302.397 246.36 296.924 242.692C294.239 240.892 291.455 239.271 288.634 237.71C283.876 235.078 280.301 231.302 277.696 226.574C274.743 221.213 273.099 215.56 273.87 209.36C274.063 207.799 274.1 206.218 274.22 204.648C274.293 203.696 274.251 202.748 273.978 201.837C273.508 200.265 271.947 199.754 270.605 200.734C270.166 201.054 269.802 201.481 269.418 201.874C266.666 204.696 264.117 207.7 261.621 210.744C259.826 212.933 258.03 215.131 256.587 217.587C255.77 218.978 255.279 220.461 255.35 222.073C255.399 223.17 255.504 224.284 255.755 225.349C257.074 230.952 259.468 236.013 263.291 240.384C266.41 243.95 269.771 247.258 273.293 250.416C277 253.74 280.407 257.328 283.004 261.622C283.9 263.103 284.884 264.53 285.854 265.964C286.114 266.347 286.436 266.708 286.795 266.999C287.354 267.454 287.94 267.433 288.543 267.055C289.146 266.678 289.424 266.104 289.265 265.452C289.119 264.854 288.822 264.28 288.513 263.739C287.616 262.168 286.661 260.63 285.762 259.06C284.584 257 283.196 255.097 281.597 253.346C279.632 251.193 277.587 249.123 275.4 247.188C272.212 244.367 269.214 241.358 266.395 238.16C263.098 234.419 260.964 230.124 259.651 225.332C258.86 222.445 259.234 219.978 261.079 217.589C263.681 214.221 266.38 210.941 269.174 207.734C269.414 207.457 269.626 207.063 270.209 207.277C270.142 208.11 270.11 208.972 269.998 209.824C269.655 212.434 269.791 215.049 270.355 217.582C272.532 227.359 277.32 235.399 286.153 240.64C287.167 241.242 288.194 241.824 289.226 242.396C291.224 243.503 293.137 244.742 295.031 246.018C299.071 248.742 301.569 252.539 302.846 257.178C303.474 259.462 303.752 261.807 303.836 264.176C304.104 271.814 304.118 279.457 303.959 287.094C303.762 296.625 303.823 306.155 303.782 315.685C303.773 317.887 303.929 320.091 304.035 322.294C304.168 325.047 304.344 327.798 304.465 330.552C304.507 331.484 304.409 331.594 303.426 331.744C300.238 332.232 297.057 332.824 293.85 333.121C287.573 333.702 281.344 334.565 275.177 335.858C270.713 336.794 266.275 337.858 261.794 338.705C258.551 339.318 255.254 339.645 251.988 340.143C250.045 340.439 248.119 340.84 246.179 341.156C241.675 341.889 237.165 342.583 232.662 343.324C228.471 344.014 224.278 344.702 220.101 345.477C218.753 345.727 218.373 345.296 217.967 344.243C217.26 342.41 216.584 340.565 215.884 338.729C215.52 337.775 215.16 336.818 214.748 335.884C214.114 334.445 213.422 333.033 212.782 331.597C210.643 326.794 207.757 322.519 203.911 318.91C200.555 315.762 196.581 313.773 192.126 312.776C186.324 311.478 180.445 311.164 174.514 311.597C171.135 311.844 167.784 312.295 164.426 312.726C159.345 313.378 154.373 314.573 149.364 315.586C149.057 315.648 148.74 315.706 148.458 315.833C147.795 316.13 147.351 316.922 147.449 317.551C147.572 318.337 148.243 318.934 149.09 318.965C149.481 318.979 149.879 318.953 150.266 318.897C151.745 318.68 153.224 318.466 154.697 318.211C159.503 317.38 164.301 316.509 169.151 315.94C175.749 315.166 182.313 314.959 188.919 316.01C195.033 316.983 199.993 319.723 203.977 324.468C207.745 328.956 209.81 334.318 212.129 339.559C212.924 341.353 213.544 343.225 214.217 345.071C214.363 345.472 214.769 345.84 214.473 346.386C213.655 346.868 212.673 346.81 211.764 347.017C208.621 347.733 205.589 348.889 202.385 349.359C202.008 349.414 201.625 349.589 201.299 349.794C200.314 350.417 200.419 352.008 201.461 352.538C201.893 352.758 202.345 352.849 202.832 352.767C203.918 352.583 205.012 352.442 206.091 352.225C209.713 351.496 213.279 350.512 216.94 349.947C220.749 349.359 224.542 348.666 228.328 347.947C235.288 346.627 242.294 345.601 249.294 344.536C250.517 344.35 251.78 344.282 253.167 344.493C252.427 347.173 252.242 349.825 252.066 352.485C251.751 357.231 252.1 361.926 253.044 366.577C253.997 371.277 254.923 375.988 256.745 380.458C256.77 380.518 256.738 380.601 256.726 380.753C255.742 380.925 254.744 381.167 253.732 381.267C247.991 381.835 242.41 383.182 236.904 384.82C233.057 385.964 229.327 387.456 225.947 389.686C225.293 390.117 224.617 390.555 224.078 391.111C222.659 392.578 222.659 394.198 223.999 395.755C224.682 396.548 225.546 397.072 226.523 397.44C227.935 397.972 229.398 398.2 230.893 398.366C233.153 398.615 235.452 398.573 237.666 399.196C237.964 399.662 238.438 399.437 238.84 399.495C239.123 399.51 239.41 399.462 239.686 399.559C239.407 399.488 239.122 399.519 238.84 399.511C238.421 399.544 237.978 399.41 237.596 399.693C232.92 400.336 228.243 400.981 223.567 401.622C220.137 402.092 216.71 402.588 213.275 403.015C208.668 403.587 204.056 404.124 199.442 404.64C194.201 405.227 188.962 405.822 183.713 406.322C179.168 406.755 174.608 407.021 170.061 407.429C160.332 408.303 150.58 408.765 140.823 409.133C126.977 409.655 113.121 409.844 99.2936 410.957C90.5847 411.658 81.837 411.65 73.1109 410.649C67.972 410.059 63.3038 408.46 59.2657 405.203C57.736 403.969 56.2524 402.667 54.8388 401.302C50.1244 396.748 46.6489 391.362 44.2774 385.261C44.0515 384.68 43.8905 384.06 43.7974 383.444C43.3388 380.41 42.8155 377.381 42.5031 374.332C42.1827 371.203 41.8938 368.064 42.0608 364.902C42.4687 357.181 43.4666 349.545 45.2879 342.028C46.3831 337.508 47.7434 333.074 50.0846 329.012C54.5284 321.303 59.969 314.433 67.0007 308.89C69.5351 306.893 72.0049 304.812 74.4845 302.746C78.507 299.394 82.0322 295.59 84.6571 291.037C86.4599 287.91 88.9967 285.692 92.2762 284.268C92.4922 284.174 92.6923 284.045 92.9059 283.945C94.9973 282.97 96.8387 281.642 98.4705 280.017C99.8098 278.683 101.132 277.332 102.487 276.015C105.34 273.242 108.673 271.526 112.698 271.109C115.98 270.769 119.258 270.324 122.437 269.347C124.351 268.759 126.061 267.84 127.557 266.519C128.86 265.37 130.093 264.145 131.071 262.707C134.17 258.151 137.207 253.555 139.59 248.569C140.505 246.655 141.307 244.687 142.181 242.752C143.882 238.987 146.185 235.649 149.048 232.653C152.808 228.72 157.254 225.812 162.136 223.526C168.12 220.725 174.278 218.367 180.549 216.279C187.83 213.855 195.285 212.385 202.915 211.705C208.559 211.202 214.206 210.713 219.838 210.086C225.168 209.493 230.496 209.164 235.863 209.289C240.196 209.391 244.518 209.578 248.829 210.027C249.38 210.084 249.919 210.139 250.449 209.89C250.994 209.636 251.327 209.24 251.398 208.641C251.478 207.959 251.284 207.366 250.662 207.035C250.253 206.817 249.787 206.646 249.329 206.59C246.44 206.235 243.553 205.774 240.651 205.615C232.454 205.165 224.287 205.634 216.138 206.6C211.841 207.109 207.527 207.485 203.216 207.876C198.354 208.318 193.516 208.897 188.757 210.033C178.622 212.452 168.935 216.113 159.54 220.577C158.263 221.183 157.013 221.856 155.796 222.576C147.837 227.285 141.774 233.707 138.237 242.331C135.713 248.483 132.303 254.126 128.59 259.604C127.931 260.577 127.167 261.487 126.385 262.368C124.662 264.308 122.532 265.504 119.971 266.086C117.353 266.682 114.709 267.064 112.054 267.354C107.577 267.843 103.771 269.702 100.473 272.691C99.5982 273.483 98.7521 274.312 97.9478 275.176C95.5653 277.732 92.9191 279.884 89.6847 281.335C86.3791 282.818 83.7278 285.133 81.9143 288.328C81.7592 288.601 81.5578 288.847 81.3973 289.118C78.9569 293.228 75.7768 296.697 72.1319 299.753C69.5984 301.878 67.0583 303.997 64.4692 306.053C59.7494 309.799 55.6587 314.142 52.085 318.978C47.8482 324.71 44.3224 330.807 42.4526 337.764C39.991 346.923 38.595 356.238 38.2406 365.711C38.1639 367.759 38.2278 369.804 38.467 371.844C38.5861 372.86 38.6379 373.884 38.6955 374.906C38.736 375.623 38.658 375.731 37.9059 375.758C35.0731 375.86 32.2395 375.952 29.4054 376.011C19.8796 376.21 10.3536 376.393 0.827637 376.582C0.827637 377.842 0.827637 379.102 0.827637 380.363C12.7946 380.127 24.7616 379.881 36.7293 379.676C37.5576 379.662 38.5445 379.228 39.2115 379.892C39.7755 380.454 39.5056 381.392 39.6657 382.152C39.9902 383.691 40.3255 385.228 40.6563 386.765C42.1188 388.663 42.6142 391.04 43.7828 393.081C48.1773 400.756 54.0685 406.974 61.7955 411.35C64.2053 412.715 66.8502 413.495 69.5901 413.95C73.091 414.53 76.6162 414.833 80.1565 415.031C87.1704 415.423 94.1711 415.108 101.169 414.685C104.784 414.466 108.39 414.063 112.007 413.921C125.622 413.384 139.242 412.961 152.856 412.41C158.127 412.196 163.393 411.813 168.652 411.4C175.009 410.9 181.36 410.315 187.709 409.714C192.881 409.224 198.054 408.725 203.212 408.101C209.852 407.298 216.478 406.366 223.109 405.49C230.756 404.479 238.397 403.408 246.081 402.715C248.415 402.505 250.759 402.113 253.125 402.627C256.198 403.295 259.288 403.889 262.376 404.489C267.318 405.447 272.261 406.396 277.208 407.326C280.918 408.024 284.593 408.902 288.353 409.336C295.223 410.128 302.02 409.967 308.705 407.977C311.647 407.102 314.642 406.418 317.675 405.952C323.471 405.061 329.314 405.221 335.125 405.605C339.434 405.89 343.738 406.426 348.018 407.111C349.388 407.33 350.284 407.759 350.874 409.078C351.919 411.417 353.611 413.294 355.598 414.894C358.18 416.974 360.927 418.79 363.96 420.168C366.684 421.406 369.457 422.508 372.314 423.391C381.221 426.142 390.367 427.655 399.623 428.575C402.208 428.832 404.802 429.005 407.393 429.205C410.847 429.471 414.298 429.829 417.757 429.962C423.348 430.179 428.913 430.708 434.487 431.135C436.528 431.292 438.573 431.415 440.61 431.612C446.017 432.138 451.415 432.754 456.826 433.222C461.766 433.65 466.696 434.163 471.655 434.426C477.47 434.733 483.261 435.467 489.071 435.889C494.648 436.294 500.237 436.536 505.833 436.24C511.024 435.966 516.175 435.267 521.346 434.774C526.724 434.261 531.818 432.799 536.681 430.484C539.97 428.917 542.999 426.968 545.645 424.436C548.159 422.03 550.219 419.244 552.365 416.528C554.552 413.76 555.941 410.625 556.716 407.199C556.855 406.586 557.027 405.98 557.195 405.374C557.703 403.547 557.705 403.559 559.52 403.601C561.724 403.652 563.932 403.779 566.133 403.701C572.915 403.462 579.674 403.887 586.436 404.276C588.164 404.376 589.897 404.409 591.629 404.457C592.268 404.474 592.882 404.341 593.428 403.98C594.417 403.325 594.419 401.843 593.433 401.188ZM394.051 152.93C394.083 152.796 394.231 152.678 394.349 152.578C397.374 150.006 398.944 146.545 399.568 142.801C400.509 137.144 400.77 131.404 400.224 125.664C400.135 124.732 399.874 123.818 399.721 122.89C399.66 122.518 399.591 122.054 400.063 121.906C400.561 121.75 400.743 122.164 400.852 122.548C401.215 123.833 401.581 125.127 401.607 126.468C401.648 128.509 401.618 130.55 401.618 132.591C401.627 135.575 401.56 138.555 401.179 141.525C400.708 145.192 399.323 148.48 397.249 151.497C396.58 152.472 395.79 153.359 394.636 153.799C394.417 153.883 394.141 153.836 394.056 153.582C393.989 153.384 394.002 153.138 394.051 152.93ZM387.66 87.6385C387.89 87.4899 388.297 87.8269 388.44 88.3022C389.485 91.7723 390.086 95.3375 390.655 98.9054C391.261 102.707 391.831 106.515 392.341 110.331C392.632 112.511 392.861 114.707 392.964 116.903C393.219 122.322 393.585 127.74 393.496 133.17C393.47 134.739 393.291 136.305 393.172 137.872C393.154 138.104 393.14 138.38 393.01 138.547C392.894 138.697 392.624 138.763 392.413 138.788C392.318 138.799 392.126 138.632 392.107 138.523C392.04 138.142 391.981 137.749 392.006 137.366C392.235 133.908 392.146 130.448 392.077 126.107C391.84 120.467 391.682 113.93 390.648 107.476C389.691 101.508 389.026 95.4827 387.505 89.6112C387.407 89.2332 387.375 88.8363 387.336 88.4458C387.305 88.13 387.361 87.8319 387.66 87.6385ZM227.84 147.305C227.141 147.509 226.437 147.479 225.752 147.241C222.46 146.1 219.416 141.962 219.358 138.449C219.443 137.541 219.581 136.539 219.937 135.562C220.615 133.699 221.592 132.002 222.666 130.351C223.31 129.362 223.96 128.377 224.581 127.374C225.291 126.226 225.721 124.965 226.042 123.659C226.129 123.304 226.215 122.873 226.746 122.861C227.13 122.852 227.324 123.286 227.199 123.995C226.979 125.244 226.572 126.436 225.941 127.534C225.235 128.76 224.486 129.962 223.733 131.16C222.854 132.56 222.05 133.993 221.388 135.515C220.062 138.569 220.797 141.189 222.937 143.546C223.358 144.01 223.843 144.421 224.328 144.82C225.322 145.638 226.401 146.239 227.766 146.082C228.137 146.039 228.388 146.357 228.405 146.648C228.422 146.94 228.161 147.212 227.84 147.305ZM378.958 90.0875C379.005 89.7281 379.269 89.4697 379.563 89.4808C379.855 89.4918 380.118 89.7834 380.16 90.1161C380.238 90.7388 380.289 91.3666 380.317 91.9939C380.388 93.5643 380.439 95.1359 380.498 96.707C380.512 96.7063 380.525 96.7059 380.539 96.7052C380.606 98.197 380.68 99.6886 380.735 101.181C380.753 101.651 380.732 102.123 380.709 102.593C380.692 102.935 380.51 103.245 380.185 103.286C379.717 103.345 379.54 102.973 379.454 102.571C379.438 102.494 379.421 102.416 379.417 102.338C379.255 98.3329 379.094 94.3272 378.934 90.3216C378.931 90.2441 378.948 90.1655 378.958 90.0875ZM362.328 75.6548C362.349 75.5094 362.419 75.3309 362.527 75.2501C362.627 75.1758 362.823 75.1707 362.952 75.2114C363.091 75.2549 363.223 75.3691 363.322 75.4837C364.605 76.9724 365.872 78.4751 367.162 79.9578C369.716 82.8931 371.24 86.2424 371.551 90.1637C371.769 92.9182 371.758 95.6635 371.624 98.4134C371.138 108.389 370.608 118.363 370.157 128.341C369.998 131.874 369.885 135.417 370.313 138.946C370.342 139.179 370.343 139.417 370.34 139.651C370.334 140.012 370.145 140.248 369.787 140.276C369.417 140.306 369.206 140.018 369.14 139.726C369.018 139.193 368.941 138.641 368.921 138.095C368.858 136.366 368.771 134.635 368.799 132.907C368.879 127.954 368.898 122.997 369.302 118.054C369.398 116.878 369.421 115.697 369.478 114.519C369.472 114.518 369.466 114.518 369.461 114.518C369.706 110.042 369.945 105.566 370.198 101.09C370.376 97.9473 370.429 94.8027 370.349 91.656C370.247 87.6653 368.982 84.109 366.393 81.0456C365.225 79.6647 364.052 78.2879 362.905 76.8906C362.617 76.5383 362.252 76.1833 362.328 75.6548ZM345.127 134.894C345.974 129.689 347.265 124.579 348.439 119.444C350.647 109.787 351.346 100.005 350.809 90.1276C350.63 86.8272 350.453 83.5241 350.153 80.2336C349.824 76.6306 349.382 73.0374 348.939 69.446C348.563 66.4026 348.109 63.3691 347.709 60.3285C347.66 59.9534 347.721 59.5607 347.756 59.1783C347.774 58.9832 347.922 58.9063 348.111 58.9596C348.252 58.9994 348.485 59.025 348.513 59.1107C348.731 59.7742 348.973 60.4403 349.086 61.1255C349.421 63.1424 349.754 65.1623 349.989 67.1924C350.577 72.2715 351.419 77.3223 351.665 82.4402C351.87 86.6854 352.121 90.9282 352.283 93.9122C352.347 103.947 351.472 112.614 349.409 121.151C348.337 125.584 347.279 130.022 346.525 134.522C346.057 137.316 345.681 140.129 346.27 142.969C346.479 143.976 346.762 144.947 347.157 145.894C348.124 148.208 349.813 149.785 352.146 150.612C353.324 151.03 354.567 151.317 355.805 151.504C359.868 152.12 363.955 152.178 368.051 151.878C372.211 151.573 376.373 151.287 380.535 151.003C380.922 150.976 381.321 150.99 381.703 151.055C381.91 151.09 382.144 151.251 382.067 151.545C382.03 151.684 381.957 151.891 381.856 151.923C381.412 152.063 380.957 152.205 380.497 152.247C378.068 152.464 375.638 152.692 373.204 152.841C368.1 153.153 362.997 153.688 357.879 153.066C356.708 152.924 355.535 152.787 354.374 152.582C349.232 151.677 345.819 148.85 344.893 142.654C344.506 140.067 344.707 137.47 345.127 134.894ZM246.905 72.2572C247.012 71.3201 247.151 70.3848 247.322 69.4573C247.647 67.6984 247.626 67.6327 249.191 66.8308C252.156 65.3113 255.201 65.1185 258.253 66.6071C259.894 67.4068 261.287 68.5676 262.665 69.7445C263.203 70.2035 263.723 70.7034 264.322 71.0661C265.387 71.7105 266.592 71.2779 267.065 70.1816C267.268 69.7122 267.27 69.2625 267.028 68.8241C266.878 68.5523 266.724 68.2572 266.498 68.0564C264.437 66.2289 262.359 64.4368 259.881 63.154C256.901 61.6115 253.838 61.6395 250.697 62.4355C250.177 62.5677 249.663 62.7288 248.866 62.9569C248.922 61.5182 249.401 60.5244 249.749 59.4981C252.305 51.9562 255.48 44.6936 259.529 37.8259C260.246 36.6101 260.803 35.3111 261.702 34.1879C262.602 33.065 263.621 32.4429 265.096 32.4097C266.981 32.3675 268.863 32.1474 270.747 32.0218C274.695 31.7586 278.611 32.2072 282.522 32.6378C285.962 33.0167 289.397 33.4467 292.823 33.9338C306.945 35.942 320.396 40.1116 333.163 46.4909C334.218 47.0181 334.892 47.6875 335.343 48.7757C337.044 52.8751 337.901 57.1861 338.744 61.5113C340.286 69.4267 340.807 77.4206 340.713 85.4686C340.687 87.7515 340.716 90.0349 340.689 92.3177C340.68 93.1441 340.541 93.2364 339.693 93.2485C339.536 93.2507 339.378 93.2422 339.221 93.2383C331.823 93.0579 324.425 92.8766 317.027 92.697C315.295 92.655 313.564 92.6253 311.832 92.5785C310.276 92.5365 310.242 92.5356 309.981 91.1118C309.68 89.4747 309.156 87.9136 308.472 86.4077C304.916 78.5791 296.732 73.2034 287.475 74.1415C281.717 74.7251 277.041 77.4247 273.507 82.0403C273.22 82.4146 272.911 82.7848 272.7 83.2014C272.334 83.9264 271.802 84.0604 271.003 84.1415C268.032 84.4426 265.076 84.8959 262.118 85.3192C260.753 85.5144 260.747 85.5473 260.167 84.3208C259.357 82.6055 258.391 80.9919 257.161 79.5412C254.698 76.6373 251.646 74.6636 247.963 73.6667C246.841 73.3628 246.786 73.2863 246.905 72.2572ZM292.066 83.3734C291.79 83.7529 291.478 84.1087 291.159 84.454C287.639 88.2606 284.117 92.0647 280.589 95.8637C280.325 96.1479 280.026 96.4057 279.715 96.6381C279.506 96.7945 279.266 96.7089 279.074 96.5545C278.876 96.3942 278.778 96.1609 278.91 95.9371C279.107 95.6024 279.326 95.271 279.589 94.9868C283.319 90.947 287.056 86.9137 290.8 82.8864C291.008 82.6622 291.274 82.48 291.542 82.3282C291.649 82.2673 291.859 82.2983 291.975 82.367C292.096 82.4378 292.16 82.6048 292.285 82.7818C292.223 82.9583 292.192 83.2005 292.066 83.3734ZM293.828 90.1811C294.029 89.9755 294.346 89.8278 294.63 89.7818C294.792 89.7554 294.997 89.9889 295.119 90.0654C295.275 90.5049 295.09 90.7783 294.884 91.0051C294.199 91.761 293.495 92.5003 292.789 93.2364C291.755 94.3125 290.717 95.3839 289.672 96.4481C289.454 96.6697 289.204 96.8633 288.953 97.0479C288.747 97.1998 288.478 97.2041 288.324 97.0189C288.192 96.8605 288.078 96.5785 288.13 96.4013C288.212 96.1167 288.401 95.8381 288.609 95.6183C290.337 93.7948 292.073 91.979 293.828 90.1811ZM286.748 105.78C288.981 103.345 291.233 100.927 293.48 98.5053C295.567 96.256 297.652 94.0056 299.749 91.7658C300.119 91.3705 300.431 90.8978 300.992 90.7141C301.242 90.6323 301.726 90.9013 301.707 91.145C301.773 91.4974 301.565 91.7459 301.36 91.9759C300.629 92.7995 299.893 93.6185 299.142 94.4243C295.496 98.3387 291.844 102.248 288.195 106.16C288.034 106.332 287.889 106.52 287.719 106.683C287.337 107.05 287.027 107.592 286.354 107.347C285.923 107.189 286.055 106.536 286.748 105.78ZM245.592 105.586C246.755 104.002 247.918 102.418 249.086 100.838C250.629 98.7516 252.17 96.6654 253.724 94.5876C254.001 94.2168 254.224 93.7887 254.683 93.576C254.915 93.4682 255.433 93.6601 255.467 94.0532C255.449 94.1301 255.444 94.3782 255.336 94.5655C255.1 94.9719 254.821 95.3553 254.541 95.7344C252.021 99.1504 249.501 102.566 246.97 105.974C246.648 106.407 246.391 106.933 245.818 107.107C245.689 107.146 245.493 107.11 245.385 107.032C245.275 106.951 245.196 106.782 245.17 106.639C245.09 106.209 245.361 105.9 245.592 105.586ZM243.751 98.6489C243.563 98.901 243.309 99.0979 242.869 98.9502C242.781 98.8196 242.614 98.6482 242.543 98.4438C242.502 98.3248 242.578 98.1271 242.663 98.0088C244.124 95.9631 245.592 93.9226 247.07 91.8891C247.153 91.7762 247.323 91.6987 247.467 91.6681C247.609 91.6376 247.83 91.63 247.908 91.7138C248.056 91.8706 248.254 92.144 248.205 92.293C247.9 93.2028 247.232 93.8958 246.681 94.6569C245.713 95.9941 244.737 97.3254 243.751 98.6489ZM233.458 138.797C232.958 138.93 232.72 138.568 232.625 138.192C232.377 137.208 232.112 136.218 231.996 135.214C231.752 133.117 231.333 131.035 231.389 128.908C231.343 127.975 231.168 127.037 231.384 126.105C231.459 125.779 231.663 125.549 232.026 125.56C232.414 125.571 232.537 125.836 232.513 126.175C232.41 127.591 232.632 128.983 232.764 130.385C232.976 132.647 233.251 134.895 233.732 137.117C233.797 137.421 233.842 137.737 233.84 138.047C233.838 138.344 233.836 138.697 233.458 138.797ZM234.062 97.0548C233.826 97.3678 233.59 97.6817 233.332 97.9752C233.068 98.275 232.749 98.5417 232.333 98.2757C231.905 98.0023 232.005 97.6293 232.24 97.2693C232.326 97.1382 232.412 97.0072 232.506 96.882C236.272 91.8717 240.036 86.8599 243.812 81.8568C244.042 81.5514 244.354 81.3036 244.645 81.0491C244.826 80.8907 245.37 81.1113 245.443 81.4932C245.426 81.5727 245.433 81.822 245.324 82.0015C245.082 82.4018 244.787 82.7707 244.505 83.1461C241.025 87.7834 237.544 92.4195 234.062 97.0548ZM319.141 225.232C319.01 225.308 318.849 225.348 318.697 225.372C314.844 226 311.203 222.938 311.256 219.082C311.289 218.732 311.236 218.317 311.541 218.014C311.638 217.919 311.815 217.843 311.943 217.858C312.074 217.874 312.269 217.993 312.295 218.102C312.369 218.4 312.378 218.716 312.398 219.027C312.624 222.502 315.103 223.815 317.6 224.037C318.062 224.078 318.534 224.005 319.002 223.999C319.349 223.995 319.625 224.151 319.645 224.516C319.663 224.852 319.412 225.073 319.141 225.232ZM321.216 222.107C321.44 222.197 321.584 222.367 321.529 222.709C321.384 222.785 321.203 222.951 321.012 222.963C320.698 222.984 320.482 222.576 320.633 222.306C320.762 222.074 320.982 222.013 321.216 222.107ZM329.098 200.355C328.83 200.507 328.536 200.662 328.236 200.704C326.912 200.888 325.585 201.087 324.252 201.182C318.993 201.557 313.73 201.881 308.471 202.252C305.409 202.468 302.352 202.737 300.4 202.893C296.455 203.16 293.628 203.141 290.815 202.668C289.566 202.459 288.349 202.137 287.217 201.577C285.765 200.859 284.928 199.66 284.839 198.034C284.788 197.097 284.865 196.15 284.938 195.212C284.951 195.043 285.205 194.797 285.385 194.758C285.761 194.677 285.944 194.983 285.989 195.304C286.031 195.61 285.987 195.928 285.984 196.241C285.979 196.634 285.949 197.03 285.979 197.421C286.105 199.075 286.893 200.222 288.528 200.73C290.265 201.271 292.042 201.623 293.856 201.667C295.822 201.714 297.796 201.736 299.756 201.606C304.625 201.283 309.487 200.856 314.353 200.492C317.335 200.269 320.321 200.101 323.303 199.879C324.635 199.78 325.962 199.597 327.293 199.477C327.836 199.429 328.387 199.422 328.931 199.45C329.186 199.464 329.306 199.724 329.302 199.962C329.299 200.098 329.208 200.292 329.098 200.355ZM336.069 199.762C335.747 199.796 335.507 199.626 335.502 199.25C335.498 198.969 335.712 198.911 335.87 198.85C336.173 198.762 336.404 198.921 336.446 199.102C336.511 199.378 336.435 199.724 336.069 199.762ZM350.399 166.328C349.794 169.735 349.169 173.139 348.602 176.554C348.073 179.742 347.755 182.954 347.785 186.191C347.794 187.121 347.704 187.423 346.621 187.466C338.282 187.804 329.935 188.033 321.61 188.599C313.123 189.176 304.632 189.583 296.136 189.951C293.626 190.06 291.128 190.468 288.626 190.755C286.445 191.005 286.422 190.981 286.308 188.752C286.198 186.609 286.411 184.496 286.985 182.438C287.829 179.412 288.496 176.332 289.652 173.396C290.12 172.207 290.364 170.978 290.086 169.699C289.912 168.9 289.323 168.466 288.531 168.636C287.766 168.8 287.027 169.086 286.269 169.291C283.313 170.092 280.354 170.885 277.394 171.673C277.015 171.774 276.624 171.869 276.235 171.887C272.459 172.066 268.685 172.238 264.937 171.502C262.761 171.074 260.665 170.427 258.726 169.347C257.421 168.621 256.134 167.857 254.887 167.036C250.211 163.959 246.846 159.825 244.782 154.597C243.011 150.109 241.836 145.468 240.994 140.738C239.861 134.371 239.286 127.946 239.156 121.479C239.113 119.354 239.307 117.252 239.51 115.001C240.301 115.062 240.976 115.135 241.653 115.16C242.36 115.186 243.073 115.208 243.777 115.154C244.481 115.1 245.178 114.956 245.876 114.842C246.552 114.732 247.226 114.611 247.917 114.492C247.948 115.199 247.477 115.569 247.252 116.05C246.059 118.595 246.145 121.071 247.628 123.475C248.771 125.329 250.28 126.783 252.284 127.689C252.713 127.883 253.13 128.11 253.571 128.274C255.396 128.952 256.514 130.313 257.258 132.042C257.474 132.546 257.627 133.083 257.897 133.554C258.273 134.211 259.051 134.534 259.694 134.398C260.481 134.232 261.093 133.579 261.192 132.772C261.27 132.132 261.124 131.528 260.893 130.929C259.892 128.334 258.303 126.266 255.718 125.075C255.076 124.779 254.427 124.497 253.788 124.193C252.541 123.601 251.605 122.665 250.889 121.5C249.96 119.989 250.038 118.5 251.095 117.102C251.663 116.351 252.334 115.677 252.976 114.985C255.832 111.9 258.29 108.538 259.847 104.61C261.67 100.013 262.59 95.2639 261.842 90.2954C261.807 90.0619 261.778 89.8273 261.754 89.5923C261.707 89.1346 261.88 88.8452 262.369 88.7941C263.622 88.6628 264.872 88.4986 266.128 88.4022C267.442 88.3013 268.761 88.1681 270.188 88.235C269.983 89.531 269.793 90.6745 269.621 91.8204C268.318 100.498 273.405 111.417 284.607 114.681C296.751 118.219 308.074 110.222 310.023 98.963C310.157 98.1886 310.309 97.4172 310.452 96.6426C310.834 96.2464 311.327 96.3829 311.777 96.3937C320.752 96.6117 329.727 96.8393 338.702 97.0668C339.095 97.0767 339.493 97.072 339.879 97.1339C340.322 97.205 340.542 97.5006 340.504 97.9633C340.497 98.0417 340.494 98.1206 340.488 98.1988C340.014 103.847 339.872 109.522 339.166 115.151C337.657 127.185 335.695 139.132 332.076 150.746C331.749 151.795 331.326 152.815 330.963 153.854C330.729 154.521 330.435 155.184 330.322 155.873C330.071 157.397 330.321 158.666 331.504 159.948C333.264 161.855 335.359 162.893 337.776 163.433C341.161 164.189 344.606 164.552 348.057 164.859C348.833 164.928 349.638 164.815 350.354 165.168C350.596 165.562 350.467 165.942 350.399 166.328ZM348.674 403.345C348.064 403.747 347.441 403.518 346.871 403.391C341.628 402.225 336.319 401.694 330.956 401.646C328.596 401.625 326.235 401.571 323.876 401.612C318.732 401.702 313.686 402.548 308.781 404.037C300.584 406.526 292.343 406.411 284.04 404.816C277.865 403.629 271.691 402.444 265.524 401.215C258.283 399.772 250.999 398.514 243.892 396.456C239.862 395.288 235.701 394.956 231.55 394.59C230.446 394.493 229.364 394.345 228.3 394.048C227.921 393.942 227.582 393.788 227.386 393.323C228.774 392.313 230.282 391.493 231.855 390.778C236.243 388.783 240.877 387.596 245.548 386.492C249.232 385.62 252.993 385.276 256.711 384.642C262.519 383.651 268.382 382.919 274.066 381.301C277.842 380.227 281.6 379.081 285.336 377.875C289.982 376.374 294.726 375.301 299.514 374.383C305.68 373.2 311.569 373.759 317.046 377.063C318.122 377.713 319.214 378.336 320.293 378.982C321.777 379.871 323.244 380.786 324.736 381.662C328.651 383.959 332.876 384.956 337.403 384.552C340.928 384.237 344.447 383.862 348.167 383.494C348.632 386.539 348.791 389.52 348.545 392.5C348.265 395.886 348.182 399.255 348.669 402.626C348.702 402.848 348.674 403.08 348.674 403.345ZM350.233 375.707C350.051 376.142 349.89 376.586 349.701 377.017C348.536 379.665 349.15 379.335 345.967 379.845C343.02 380.317 340.022 380.488 337.043 380.755C333.408 381.081 330.002 380.313 326.851 378.473C325.154 377.482 323.479 376.452 321.803 375.426C318.914 373.657 315.96 372.005 312.7 371.023C309.345 370.012 305.911 369.74 302.422 370.168C296.553 370.887 290.813 372.194 285.165 373.927C281.035 375.194 276.913 376.492 272.762 377.685C269.588 378.597 266.341 379.22 263.083 379.765C262.54 379.855 261.987 379.88 261.442 379.958C260.82 380.048 260.368 379.876 260.144 379.243C259.753 378.134 259.224 377.056 258.972 375.916C258.007 371.54 257.031 367.163 256.259 362.751C255.854 360.437 255.864 358.05 255.717 356.1C255.9 351.997 256.008 348.3 257.004 344.697C257.194 344.009 257.469 343.651 258.201 343.477C265.62 341.713 273.069 340.105 280.569 338.712C285.376 337.819 290.228 337.401 295.073 336.852C298.744 336.436 302.387 335.778 306.044 335.238C310.247 334.618 314.454 334.017 318.702 333.792C319.565 333.747 320.436 333.733 321.298 333.786C325.383 334.035 329.474 334.227 333.548 334.603C337.699 334.986 341.843 335.485 345.97 336.071C350.641 336.734 355.307 337.454 359.943 338.324C365.662 339.396 371.329 340.715 376.714 343.005C377.943 343.527 379.164 344.074 380.363 344.661C383.962 346.424 387.541 348.227 391.141 349.989C394.675 351.717 398.317 353.179 402.064 354.385C404.397 355.135 406.573 356.198 408.548 357.68C410.536 359.171 411.681 361.121 412.223 363.529C412.679 365.554 411.994 367.125 410.491 368.338C408.882 369.637 407.058 370.523 404.915 370.635C402.071 370.784 399.249 370.528 396.434 370.217C390.647 369.577 384.879 368.731 379.08 368.251C373.118 367.757 367.132 367.63 361.172 368.525C358.482 368.93 356.002 369.819 353.763 371.378C352.169 372.488 350.982 373.915 350.233 375.707Z" fill="white"/>
<path d="M273.914 144.756C273.22 144.134 272.413 143.607 271.591 143.162C269.399 141.978 267.021 141.535 264.542 141.549C263.758 141.603 262.964 141.598 262.191 141.72C259.577 142.133 257.174 143.039 255.291 144.988C252.743 147.628 252.646 151.115 255.007 153.931C256.092 155.225 257.465 156.128 259.002 156.776C262.146 158.1 265.41 158.286 268.714 157.593C270.493 157.22 272.153 156.495 273.595 155.344C277.24 152.434 277.396 147.879 273.914 144.756ZM271.851 153.245C270.987 153.819 270.004 154.031 268.943 154.091C268.504 154.053 268.031 153.991 267.894 153.42C267.774 152.922 267.928 152.492 268.33 152.181C269.325 151.411 270.426 151.228 271.628 151.611C271.96 151.716 272.18 151.949 272.264 152.239C272.382 152.645 272.193 153.018 271.851 153.245Z" fill="white"/>
<path d="M392.174 207.301C398.886 207.177 405.537 207.853 412.181 208.713C422.576 210.057 432.801 212.228 442.903 214.974C447.918 216.337 452.763 218.206 457.376 220.625C461.136 222.596 464.933 224.502 468.539 226.757C478.036 232.693 485.816 240.367 491.91 249.764C494.058 253.075 495.903 256.536 497.335 260.216C498.219 262.488 499.185 264.729 499.999 267.025C502.105 272.967 503.673 279.051 504.681 285.279C505.196 288.463 505.782 291.635 506.28 294.822C506.523 296.376 506.669 297.947 506.788 299.515C506.829 300.048 506.729 300.621 506.563 301.133C506.319 301.881 505.683 302.227 504.93 302.291C504.186 302.354 503.391 301.749 503.163 300.984C503.073 300.685 503.029 300.368 503.006 300.056C502.662 295.337 501.689 290.712 500.958 286.049C500.103 280.591 498.696 275.274 497.032 270.027C495.725 265.904 494.098 261.878 492.203 257.994C489.037 251.511 484.812 245.753 479.743 240.603C474.114 234.882 467.675 230.322 460.583 226.579C454.936 223.598 449.228 220.817 443.098 218.98C438.425 217.579 433.66 216.546 428.905 215.478C421.221 213.751 413.439 212.585 405.612 211.744C397.762 210.9 389.893 210.89 382.023 211.506C379.826 211.678 377.629 211.857 375.436 212.074C374.475 212.169 374.377 212.29 374.414 213.276C374.502 215.639 374.599 218.005 374.223 220.349C373.563 224.465 373.039 228.635 371.581 232.553C367.784 242.753 360.92 250.038 350.669 253.97C350.084 254.194 349.464 254.335 348.852 254.477C348.192 254.63 347.597 254.389 347.074 254.021C346.061 253.309 346.105 251.954 347.123 251.23C347.591 250.898 348.123 250.759 348.665 250.681C349.293 250.59 349.9 250.471 350.474 250.185C355.687 247.588 360.241 244.254 363.701 239.43C366.808 235.099 368.676 230.363 369.507 225.151C369.717 223.832 370.068 222.534 370.276 221.214C370.619 219.031 370.742 216.831 370.617 214.62C370.569 213.755 370.53 212.886 370.566 212.022C370.644 210.124 371.285 209.273 373.147 208.912C375.384 208.479 377.647 208.161 379.908 207.868C383.979 207.339 388.081 207.387 392.174 207.301Z" fill="white"/>
<path d="M265.305 28.5662C265.255 28.0032 265.689 27.7272 265.99 27.393C271.644 21.1255 278.145 15.9807 285.848 12.4291C292.009 9.58848 298.291 7.11151 304.994 5.83913C308.247 5.22178 311.51 4.71209 314.825 4.63606C319.706 4.52407 324.586 4.42768 329.448 5.07708C333.667 5.64049 337.813 6.54919 341.947 7.53477C348.792 9.16674 355.345 11.5462 361.581 14.8433C367.004 17.711 371.702 21.4847 375.996 25.8119C376.273 26.0914 376.521 26.4002 376.805 26.6725C382.332 31.9785 385.912 38.4615 388.365 45.647C390.531 51.9939 392.054 58.4899 393.16 65.0992C393.927 69.6841 394.332 74.3087 394.889 78.9168C394.946 79.3818 394.937 79.8545 394.958 80.2983C394.42 80.592 394.202 80.1904 393.964 79.9277C392.149 77.9242 390.033 76.3079 387.714 74.9322C385.277 73.4863 382.897 71.9418 380.438 70.5338C372.435 65.9516 364.866 60.6914 357.109 55.724C346.678 49.0437 335.836 43.1511 324.352 38.4727C316.012 35.0752 307.391 32.6842 298.532 31.0891C292.406 29.9861 286.237 29.279 280.052 28.6327C277.223 28.337 274.404 28.1763 271.567 28.2367C269.993 28.2703 268.42 28.3004 266.864 28.6101C266.362 28.7098 265.812 28.9106 265.305 28.5662Z" fill="#D42488"/>
<path d="M291.402 66.7464C289.141 66.8783 286.908 67.2392 285.003 68.6987C284.694 68.9359 284.366 69.1724 284.011 69.323C283.229 69.6537 282.386 69.3841 281.925 68.7134C281.498 68.0913 281.514 67.3953 282.028 66.7526C282.269 66.4505 282.568 66.1806 282.88 65.9494C286.651 63.1551 290.8 62.2345 295.357 63.5266C298.121 64.3103 300.542 65.7638 302.774 67.5418C303.454 68.0829 304.069 68.6894 304.407 69.5244C304.763 70.4047 304.529 71.2591 303.756 71.8023C303.053 72.2969 302.318 72.2778 301.587 71.6867C301.223 71.3921 300.946 70.9889 300.583 70.6931C297.91 68.5198 295.006 66.872 291.402 66.7464Z" fill="white"/>
<path d="M378.014 41.5133C378.002 42.3152 377.592 42.8358 376.871 43.1369C376.188 43.4217 375.622 43.1447 375.158 42.6922C374.827 42.3687 374.568 41.9565 374.332 41.5521C372.764 38.8739 370.705 36.6071 368.408 34.5568C364.652 31.2056 360.858 27.8977 357.082 24.5699C354.591 22.3745 351.935 20.4339 348.841 19.152C348.413 18.9746 347.999 18.7185 347.644 18.4209C347.123 17.9848 346.994 17.0597 347.343 16.4677C347.687 15.8824 348.238 15.5391 348.91 15.6171C349.447 15.6794 349.977 15.8815 350.485 16.0843C353.277 17.1983 355.897 18.6193 358.213 20.553C359.903 21.9645 361.585 23.387 363.236 24.8441C366.008 27.2899 368.758 29.7606 371.505 32.2334C373.324 33.8704 374.942 35.694 376.358 37.6873C376.855 38.3881 377.245 39.1668 377.668 39.9186C377.946 40.4106 378.025 40.9547 378.014 41.5133Z" fill="white"/>
<path d="M354.084 42.7749C354.216 42.8169 354.559 42.8451 354.801 43.0162C357.22 44.7244 360.06 45.4787 362.762 46.5303C366.061 47.8142 369.372 49.0651 372.596 50.532C376.882 52.482 380.509 55.3556 383.878 58.584C384.383 59.0679 384.785 59.6664 385.196 60.2391C385.577 60.7678 385.706 61.3839 385.64 62.0329C385.527 63.1365 384.38 63.7822 383.369 63.3323C382.847 63.1001 382.471 62.7052 382.1 62.2967C378.054 57.8392 373.162 54.6446 367.565 52.4737C364.265 51.194 360.981 49.872 357.715 48.508C356.267 47.903 354.832 47.2449 353.523 46.3529C352.76 45.8326 352.267 45.1691 352.329 44.1972C352.38 43.3725 353.083 42.7383 354.084 42.7749Z" fill="white"/>
<path d="M333.304 23.4008C334.384 23.414 335.39 23.583 336.33 24.0128C337.685 24.632 339.05 25.237 340.363 25.9391C343.277 27.4983 346.289 28.7906 349.448 29.7896C354.121 31.2675 358.335 33.7181 362.488 36.267C362.883 36.5098 363.256 36.8276 363.554 37.182C364.041 37.7601 364.197 38.4294 363.813 39.1462C363.424 39.8712 362.639 40.2696 361.823 39.9975C361.087 39.7516 360.387 39.3745 359.701 39.0002C357.841 37.9854 356.009 36.9192 354.144 35.9148C352.067 34.7962 349.898 33.886 347.639 33.1945C344.322 32.1793 341.167 30.8057 338.205 28.987C337.337 28.4542 336.423 27.9932 335.513 27.534C334.669 27.1084 333.792 26.8378 332.82 26.7763C331.59 26.6983 330.925 26.0147 330.95 25.1001C330.976 24.1778 331.724 23.5273 332.881 23.4223C333.038 23.4082 333.195 23.4062 333.304 23.4008Z" fill="white"/>
<path d="M316.962 19.6729C314.343 19.0987 311.728 19.7845 309.144 20.4423C306.6 21.09 304.041 21.3718 301.431 21.351C298.994 21.3315 296.561 21.5496 294.119 21.2507C291.611 20.9436 289.147 20.4722 286.721 19.7851C286.269 19.6573 285.817 19.4987 285.401 19.2841C284.595 18.8678 284.244 18.0747 284.476 17.3274C284.734 16.4978 285.598 15.9593 286.531 16.1722C287.912 16.4872 289.288 16.798 290.686 17.0411C292.247 17.3125 293.812 17.4578 295.384 17.4819C298.139 17.5241 300.896 17.4905 303.652 17.4864C305.243 17.484 306.76 17.0337 308.301 16.7209C310.073 16.3611 311.848 16.0087 313.631 15.7089C314.806 15.5113 315.991 15.5627 317.141 15.916C317.588 16.0535 318.038 16.2129 318.449 16.4324C319.136 16.7987 319.476 17.3891 319.373 18.1867C319.272 18.9693 318.635 19.5613 317.769 19.6686C317.536 19.6974 317.297 19.6729 316.962 19.6729Z" fill="white"/>
<path d="M344.685 41.0335C343.277 40.9998 342.066 40.6432 340.872 40.2557C334.797 38.2854 328.908 35.8881 323.422 32.5789C321.201 31.2387 319.025 29.8139 316.557 28.9361C315.872 28.6927 315.305 28.3041 314.997 27.5929C314.757 27.0369 314.782 26.5298 315.103 26.0255C315.49 25.4157 316.079 25.2565 316.74 25.3458C317.044 25.3867 317.331 25.5507 317.628 25.6497C320.101 26.4743 322.441 27.5914 324.669 28.9333C329.543 31.8678 334.735 34.1 340.08 36.0047C341.563 36.5332 343.066 36.9853 344.619 37.2669C345.079 37.3503 345.545 37.4646 345.975 37.6457C346.793 37.9903 347.25 38.7756 347.125 39.5012C346.995 40.2589 346.358 40.849 345.493 40.9816C345.184 41.0288 344.866 41.0229 344.685 41.0335Z" fill="white"/>
<path d="M342.075 22.7471C341.345 22.7315 340.695 22.4531 340.059 22.1336C338.583 21.3915 337.109 20.6433 335.632 19.9027C330.543 17.3515 325.193 15.5278 319.68 14.1517C318.995 13.9807 318.299 13.8153 317.652 13.5417C316.814 13.1869 316.415 12.3731 316.606 11.6424C316.824 10.8052 317.661 10.2093 318.606 10.3843C320.46 10.7281 322.302 11.1436 324.142 11.5601C329.089 12.68 333.705 14.6728 338.216 16.9375C339.412 17.5377 340.612 18.1302 341.789 18.7664C342.337 19.0634 342.875 19.4091 343.344 19.8178C343.933 20.331 344.073 21.1197 343.803 21.7548C343.532 22.392 342.869 22.7724 342.075 22.7471Z" fill="white"/>
<path d="M390.701 58.2324C390.698 58.2554 390.692 58.4969 390.621 58.718C390.418 59.3538 390.041 59.8375 389.341 59.9616C388.673 60.0801 388.051 59.941 387.667 59.3583C387.325 58.8387 387.068 58.2577 386.814 57.6854C385.538 54.8032 384.15 51.9818 382.395 49.3536C382.178 49.0289 381.961 48.6873 381.835 48.3221C381.614 47.6794 381.735 47.0777 382.254 46.597C382.771 46.117 383.618 46.0215 384.216 46.448C384.593 46.7168 384.937 47.0623 385.214 47.4347C387.236 50.1636 388.93 53.0865 390.3 56.1954C390.555 56.7746 390.756 57.3716 390.701 58.2324Z" fill="white"/>
<path d="M289.567 77.9258C286.157 77.911 283.053 78.8891 280.246 80.8169C274.715 84.6167 271.777 92.0715 273.985 99.4532C276.38 107.458 284.712 113.399 293.89 111.378C300.215 109.984 305.728 104.873 306.502 96.8902C307.484 86.7703 299.582 77.9847 289.567 77.9258ZM294.63 89.7819C294.792 89.7554 294.997 89.9889 295.118 90.0654C295.275 90.5049 295.09 90.7783 294.884 91.0051C294.199 91.7611 293.495 92.5003 292.788 93.2364C291.755 94.3125 290.717 95.3839 289.672 96.4481C289.454 96.6697 289.204 96.8634 288.953 97.0479C288.747 97.1998 288.478 97.2041 288.324 97.0189C288.192 96.8606 288.078 96.5785 288.129 96.4013C288.212 96.1167 288.4 95.8381 288.609 95.6183C290.337 93.7951 292.073 91.9792 293.828 90.1813C294.029 89.9757 294.346 89.828 294.63 89.7819ZM279.715 96.6381C279.506 96.7945 279.265 96.7089 279.074 96.5545C278.876 96.3942 278.778 96.1609 278.91 95.9371C279.106 95.6025 279.326 95.271 279.589 94.9868C283.319 90.947 287.056 86.9137 290.8 82.8864C291.008 82.6622 291.274 82.4801 291.542 82.3282C291.649 82.2673 291.859 82.2983 291.975 82.367C292.095 82.4378 292.16 82.6048 292.285 82.7818C292.223 82.9583 292.192 83.2005 292.066 83.3734C291.79 83.7529 291.478 84.1088 291.159 84.454C287.639 88.2606 284.117 92.0647 280.589 95.8637C280.325 96.1477 280.026 96.4057 279.715 96.6381ZM301.36 91.9759C300.629 92.7995 299.893 93.6185 299.142 94.4243C295.496 98.3387 291.844 102.248 288.195 106.16C288.034 106.332 287.889 106.52 287.719 106.683C287.337 107.05 287.027 107.592 286.354 107.347C285.923 107.189 286.055 106.536 286.748 105.781C288.981 103.345 291.233 100.928 293.48 98.5055C295.567 96.2562 297.652 94.0058 299.749 91.766C300.119 91.3707 300.431 90.8981 300.992 90.7144C301.242 90.6325 301.726 90.9015 301.707 91.1452C301.773 91.4974 301.564 91.7459 301.36 91.9759Z" fill="#D42488"/>
<path d="M255.092 83.189C250.238 76.0793 240.979 74.9796 234.517 80.6462C230.231 84.4053 228.402 89.2724 228.18 94.8142C228.313 98.627 229.214 102.15 231.409 105.282C236.423 112.437 245.688 113.499 252.179 107.663C254.448 105.623 256.104 103.173 257.1 100.293C259.181 94.2742 258.716 88.4965 255.092 83.189ZM233.332 97.9752C233.068 98.275 232.749 98.5417 232.333 98.2757C231.905 98.0023 232.005 97.6293 232.24 97.2693C232.326 97.1382 232.412 97.0072 232.506 96.882C236.272 91.8717 240.036 86.86 243.812 81.8568C244.042 81.5514 244.354 81.3036 244.645 81.0491C244.826 80.8907 245.37 81.1113 245.443 81.4932C245.426 81.5727 245.433 81.822 245.324 82.0015C245.082 82.4018 244.787 82.7707 244.505 83.1461C241.025 87.7832 237.544 92.4195 234.062 97.0546C233.826 97.3678 233.59 97.6817 233.332 97.9752ZM242.869 98.9504C242.781 98.8198 242.614 98.6485 242.543 98.444C242.502 98.3251 242.578 98.1273 242.662 98.009C244.124 95.9633 245.592 93.9228 247.07 91.8893C247.152 91.7764 247.323 91.6989 247.467 91.6683C247.609 91.6378 247.83 91.6302 247.908 91.714C248.056 91.8709 248.254 92.1442 248.205 92.2933C247.9 93.203 247.232 93.896 246.681 94.6572C245.713 95.9941 244.737 97.3254 243.751 98.6489C243.563 98.9012 243.309 99.0982 242.869 98.9504ZM255.336 94.5655C255.1 94.9719 254.821 95.3553 254.541 95.7344C252.021 99.1504 249.501 102.566 246.97 105.974C246.648 106.407 246.391 106.933 245.818 107.107C245.689 107.146 245.493 107.11 245.385 107.032C245.275 106.951 245.197 106.782 245.17 106.639C245.09 106.208 245.361 105.9 245.592 105.586C246.755 104.002 247.918 102.418 249.086 100.838C250.628 98.7516 252.17 96.6654 253.724 94.5876C254.001 94.2168 254.224 93.7887 254.683 93.576C254.915 93.4682 255.433 93.6601 255.467 94.0532C255.449 94.1301 255.444 94.3782 255.336 94.5655Z" fill="#D42488"/>
<path d="M322.491 216.073C319.434 213.782 316.03 213.291 312.521 214.994C308.049 217.165 307.934 222.105 310.733 225.028C312.634 227.013 314.982 227.917 318.177 227.855C318.419 227.828 319.143 227.834 319.818 227.655C322.489 226.949 324.557 225.514 325.185 222.647C325.793 219.874 324.625 217.672 322.491 216.073ZM319.141 225.232C319.01 225.308 318.849 225.348 318.697 225.372C314.844 226 311.203 222.938 311.256 219.082C311.289 218.732 311.236 218.317 311.541 218.014C311.638 217.919 311.815 217.843 311.943 217.858C312.074 217.874 312.269 217.993 312.295 218.102C312.369 218.4 312.378 218.716 312.398 219.027C312.624 222.502 315.103 223.815 317.6 224.037C318.062 224.078 318.534 224.005 319.002 223.999C319.349 223.995 319.625 224.151 319.645 224.516C319.663 224.852 319.412 225.073 319.141 225.232ZM321.529 222.709C321.384 222.785 321.203 222.951 321.012 222.963C320.698 222.984 320.482 222.576 320.633 222.306C320.762 222.074 320.982 222.013 321.216 222.107C321.44 222.197 321.584 222.367 321.529 222.709Z" fill="#D42488"/>
</svg>
