<svg xmlns="http://www.w3.org/2000/svg" viewBox="0 0 100 100" xml:space="preserve">
  <path d="M70.84 65.16a7 7 0 0 1 2.07 4.99c0 1.88-.73 3.65-2.07 4.99L51.56 94.41c-.39.39-.91.59-1.42.59H50a2.04 2.04 0 0 1-1.56-.58L29.16 75.13a7 7 0 0 1-2.06-4.99c0-1.88.73-3.65 2.06-4.99a7 7 0 0 1 4.99-2.07c1.88 0 3.65.73 4.99 2.07L43 69.03V30.97l-3.87 3.87a7.056 7.056 0 0 1-9.97 0 7.056 7.056 0 0 1 0-9.97L48.44 5.59c.43-.43 1-.62 1.56-.58.56-.04 1.13.15 1.56.58l19.29 19.29a7 7 0 0 1 2.07 4.99c0 1.88-.73 3.65-2.07 4.99a7 7 0 0 1-4.99 2.06c-1.88 0-3.65-.73-4.99-2.06L57 30.97v38.06l3.87-3.87a7 7 0 0 1 4.99-2.07c1.88 0 3.65.74 4.98 2.07"/>
</svg>
