<svg xmlns="http://www.w3.org/2000/svg" width="27" height="28" viewBox="0 0 27 28" fill="none">
  <path d="M22.95 1.8501H4.05001C2.56501 1.8501 1.35001 3.0651 1.35001 4.5501V23.4501C1.35001 24.9364 2.56501 26.1501 4.05001 26.1501H22.95C24.435 26.1501 25.65 24.9364 25.65 23.4501V4.5501C25.65 3.0651 24.435 1.8501 22.95 1.8501ZM13.4784 21.4561C15.4613 21.4554 17.3627 20.6673 18.7646 19.2651C20.1666 17.8629 20.9543 15.9613 20.9547 13.9785C20.9547 13.5222 20.8967 13.0821 20.8157 12.6501H22.95V22.3917C22.95 22.5144 22.9258 22.6358 22.8787 22.7491C22.8316 22.8624 22.7627 22.9653 22.6757 23.0518C22.5888 23.1384 22.4857 23.2069 22.3722 23.2535C22.2587 23.3 22.1371 23.3237 22.0145 23.3232H4.98556C4.86289 23.3237 4.74133 23.3 4.62784 23.2535C4.51436 23.2069 4.41119 23.1384 4.32427 23.0518C4.23734 22.9653 4.16836 22.8624 4.1213 22.7491C4.07423 22.6358 4.05 22.5144 4.05001 22.3917V12.6501H6.14116C6.05881 13.0821 6.00076 13.5222 6.00076 13.9785C6.00111 15.9616 6.78905 17.8633 8.1913 19.2656C9.59356 20.6679 11.4953 21.4558 13.4784 21.4561ZM8.80606 13.9785C8.80606 13.3649 8.92691 12.7573 9.16172 12.1905C9.39652 11.6236 9.74069 11.1085 10.1746 10.6746C10.6084 10.2408 11.1235 9.89662 11.6904 9.66181C12.2572 9.427 12.8648 9.30615 13.4784 9.30615C14.092 9.30615 14.6996 9.427 15.2664 9.66181C15.8333 9.89662 16.3484 10.2408 16.7823 10.6746C17.2161 11.1085 17.5603 11.6236 17.7951 12.1905C18.0299 12.7573 18.1508 13.3649 18.1508 13.9785C18.1508 15.2177 17.6585 16.4061 16.7823 17.2823C15.906 18.1586 14.7176 18.6508 13.4784 18.6508C12.2392 18.6508 11.0508 18.1586 10.1746 17.2823C9.29832 16.4061 8.80606 15.2177 8.80606 13.9785ZM22.0145 8.6001H19.8342C19.5867 8.59938 19.3495 8.50073 19.1744 8.32569C18.9994 8.15065 18.9007 7.91344 18.9 7.6659V5.48295C18.9 4.96725 19.3185 4.5501 19.8329 4.5501H22.0131C22.5315 4.5501 22.95 4.96725 22.95 5.48295V7.66455C22.95 8.1789 22.5315 8.6001 22.0145 8.6001Z" fill="black"/>
</svg>