<svg xmlns="http://www.w3.org/2000/svg" width="24" height="24" viewBox="0 0 24 24" fill="none">
  <g clip-path="url(#clip0_34_86)">
    <path d="M7.19999 9.5998V17.5998M16.8 17.5998V13.5998C16.8 12.7511 16.4628 11.9372 15.8627 11.3371C15.2626 10.7369 14.4487 10.3998 13.6 10.3998C12.7513 10.3998 11.9374 10.7369 11.3372 11.3371C10.7371 11.9372 10.4 12.7511 10.4 13.5998V17.5998V9.5998M6.39999 7.1998H7.99999M2.39999 0.799805H21.6C22.0243 0.799805 22.4313 0.968376 22.7314 1.26843C23.0314 1.56849 23.2 1.97546 23.2 2.3998V21.5998C23.2 22.0242 23.0314 22.4311 22.7314 22.7312C22.4313 23.0312 22.0243 23.1998 21.6 23.1998H2.39999C1.97564 23.1998 1.56868 23.0312 1.26862 22.7312C0.968559 22.4311 0.799988 22.0242 0.799988 21.5998V2.3998C0.799988 1.97546 0.968559 1.56849 1.26862 1.26843C1.56868 0.968376 1.97564 0.799805 2.39999 0.799805Z" stroke="black" stroke-width="2.5"/>
  </g>
  <defs>
    <clipPath id="clip0_34_86">
      <rect width="24" height="24" fill="white"/>
    </clipPath>
  </defs>
</svg>